<mxfile host="app.diagrams.net" agent="Mozilla/5.0 (X11; Linux x86_64) AppleWebKit/537.36 (KHTML, like Gecko) Chrome/131.0.0.0 Safari/537.36" version="28.1.1">
  <diagram name="Page-1" id="BCEGDNZFRu-tWnqpQPG3">
    <mxGraphModel dx="1426" dy="759" grid="1" gridSize="10" guides="1" tooltips="1" connect="1" arrows="1" fold="1" page="1" pageScale="1" pageWidth="850" pageHeight="1100" math="0" shadow="0">
      <root>
        <mxCell id="0" />
        <mxCell id="1" parent="0" />
        <mxCell id="lgPMQ5y3BqEglXm5Jreu-2" value="Lambda Account" style="points=[[0,0],[0.25,0],[0.5,0],[0.75,0],[1,0],[1,0.25],[1,0.5],[1,0.75],[1,1],[0.75,1],[0.5,1],[0.25,1],[0,1],[0,0.75],[0,0.5],[0,0.25]];outlineConnect=0;gradientColor=none;html=1;whiteSpace=wrap;fontSize=12;fontStyle=0;container=1;pointerEvents=0;collapsible=0;recursiveResize=0;shape=mxgraph.aws4.group;grIcon=mxgraph.aws4.group_aws_cloud_alt;strokeColor=#232F3E;fillColor=none;verticalAlign=top;align=left;spacingLeft=30;fontColor=#232F3E;dashed=0;" vertex="1" parent="1">
          <mxGeometry x="80" y="200" width="390" height="480" as="geometry" />
        </mxCell>
        <mxCell id="lgPMQ5y3BqEglXm5Jreu-4" value="&lt;b&gt;VPC A&lt;/b&gt;" style="sketch=0;outlineConnect=0;gradientColor=none;html=1;whiteSpace=wrap;fontSize=12;fontStyle=0;shape=mxgraph.aws4.group;grIcon=mxgraph.aws4.group_vpc;strokeColor=#879196;fillColor=none;verticalAlign=top;align=left;spacingLeft=30;fontColor=#879196;dashed=0;" vertex="1" parent="lgPMQ5y3BqEglXm5Jreu-2">
          <mxGeometry x="40" y="60" width="310" height="310" as="geometry" />
        </mxCell>
        <mxCell id="lgPMQ5y3BqEglXm5Jreu-35" style="edgeStyle=orthogonalEdgeStyle;rounded=0;orthogonalLoop=1;jettySize=auto;html=1;" edge="1" parent="lgPMQ5y3BqEglXm5Jreu-2" source="lgPMQ5y3BqEglXm5Jreu-5" target="lgPMQ5y3BqEglXm5Jreu-7">
          <mxGeometry relative="1" as="geometry" />
        </mxCell>
        <mxCell id="lgPMQ5y3BqEglXm5Jreu-36" style="edgeStyle=orthogonalEdgeStyle;rounded=0;orthogonalLoop=1;jettySize=auto;html=1;" edge="1" parent="lgPMQ5y3BqEglXm5Jreu-2" source="lgPMQ5y3BqEglXm5Jreu-5" target="lgPMQ5y3BqEglXm5Jreu-11">
          <mxGeometry relative="1" as="geometry" />
        </mxCell>
        <mxCell id="lgPMQ5y3BqEglXm5Jreu-5" value="Lambda Function" style="outlineConnect=0;dashed=0;verticalLabelPosition=top;verticalAlign=bottom;align=center;html=1;shape=mxgraph.aws3.lambda_function;fillColor=#F58534;gradientColor=none;labelPosition=center;" vertex="1" parent="lgPMQ5y3BqEglXm5Jreu-2">
          <mxGeometry x="160.5" y="100" width="69" height="72" as="geometry" />
        </mxCell>
        <mxCell id="lgPMQ5y3BqEglXm5Jreu-7" value="Private subnet" style="points=[[0,0],[0.25,0],[0.5,0],[0.75,0],[1,0],[1,0.25],[1,0.5],[1,0.75],[1,1],[0.75,1],[0.5,1],[0.25,1],[0,1],[0,0.75],[0,0.5],[0,0.25]];outlineConnect=0;gradientColor=none;html=1;whiteSpace=wrap;fontSize=12;fontStyle=0;container=1;pointerEvents=0;collapsible=0;recursiveResize=0;shape=mxgraph.aws4.group;grIcon=mxgraph.aws4.group_security_group;grStroke=0;strokeColor=#00A4A6;fillColor=#E6F6F7;verticalAlign=top;align=left;spacingLeft=30;fontColor=#147EBA;dashed=0;" vertex="1" parent="lgPMQ5y3BqEglXm5Jreu-2">
          <mxGeometry x="60" y="229" width="120" height="120" as="geometry" />
        </mxCell>
        <mxCell id="lgPMQ5y3BqEglXm5Jreu-10" value="AZ 1" style="outlineConnect=0;dashed=0;verticalLabelPosition=bottom;verticalAlign=top;align=center;html=1;shape=mxgraph.aws3.elastic_network_interface;fillColor=#F58534;gradientColor=none;" vertex="1" parent="lgPMQ5y3BqEglXm5Jreu-7">
          <mxGeometry x="40.5" y="40" width="49" height="50" as="geometry" />
        </mxCell>
        <mxCell id="lgPMQ5y3BqEglXm5Jreu-11" value="Private subnet" style="points=[[0,0],[0.25,0],[0.5,0],[0.75,0],[1,0],[1,0.25],[1,0.5],[1,0.75],[1,1],[0.75,1],[0.5,1],[0.25,1],[0,1],[0,0.75],[0,0.5],[0,0.25]];outlineConnect=0;gradientColor=none;html=1;whiteSpace=wrap;fontSize=12;fontStyle=0;container=1;pointerEvents=0;collapsible=0;recursiveResize=0;shape=mxgraph.aws4.group;grIcon=mxgraph.aws4.group_security_group;grStroke=0;strokeColor=#00A4A6;fillColor=#E6F6F7;verticalAlign=top;align=left;spacingLeft=30;fontColor=#147EBA;dashed=0;" vertex="1" parent="lgPMQ5y3BqEglXm5Jreu-2">
          <mxGeometry x="209.5" y="229" width="120" height="120" as="geometry" />
        </mxCell>
        <mxCell id="lgPMQ5y3BqEglXm5Jreu-12" value="AZ 2" style="outlineConnect=0;dashed=0;verticalLabelPosition=bottom;verticalAlign=top;align=center;html=1;shape=mxgraph.aws3.elastic_network_interface;fillColor=#F58534;gradientColor=none;" vertex="1" parent="lgPMQ5y3BqEglXm5Jreu-11">
          <mxGeometry x="40.5" y="40" width="49" height="50" as="geometry" />
        </mxCell>
        <mxCell id="lgPMQ5y3BqEglXm5Jreu-14" value="Route Table" style="outlineConnect=0;dashed=0;verticalLabelPosition=bottom;verticalAlign=top;align=center;html=1;shape=mxgraph.aws3.route_table;fillColor=#F58536;gradientColor=none;" vertex="1" parent="lgPMQ5y3BqEglXm5Jreu-2">
          <mxGeometry x="160.5" y="399" width="52.5" height="49" as="geometry" />
        </mxCell>
        <mxCell id="lgPMQ5y3BqEglXm5Jreu-48" value="Local Mount&lt;div&gt;Path&lt;/div&gt;" style="sketch=0;aspect=fixed;pointerEvents=1;shadow=0;dashed=0;html=1;strokeColor=none;labelPosition=center;verticalLabelPosition=bottom;verticalAlign=top;align=center;fillColor=#00188D;shape=mxgraph.mscae.enterprise.shared_folder" vertex="1" parent="lgPMQ5y3BqEglXm5Jreu-2">
          <mxGeometry x="240" y="116.5" width="33.54" height="39" as="geometry" />
        </mxCell>
        <mxCell id="lgPMQ5y3BqEglXm5Jreu-39" style="edgeStyle=orthogonalEdgeStyle;rounded=0;orthogonalLoop=1;jettySize=auto;html=1;strokeWidth=2;" edge="1" parent="1" source="lgPMQ5y3BqEglXm5Jreu-13">
          <mxGeometry relative="1" as="geometry">
            <mxPoint x="430" y="424" as="targetPoint" />
          </mxGeometry>
        </mxCell>
        <mxCell id="lgPMQ5y3BqEglXm5Jreu-40" style="edgeStyle=orthogonalEdgeStyle;rounded=0;orthogonalLoop=1;jettySize=auto;html=1;strokeWidth=2;" edge="1" parent="1" source="lgPMQ5y3BqEglXm5Jreu-13">
          <mxGeometry relative="1" as="geometry">
            <mxPoint x="650" y="424" as="targetPoint" />
          </mxGeometry>
        </mxCell>
        <mxCell id="lgPMQ5y3BqEglXm5Jreu-13" value="VPC Peering" style="outlineConnect=0;dashed=0;verticalLabelPosition=top;verticalAlign=bottom;align=center;html=1;shape=mxgraph.aws3.vpc_peering;fillColor=#F58536;gradientColor=none;labelPosition=center;" vertex="1" parent="1">
          <mxGeometry x="510" y="388" width="69" height="72" as="geometry" />
        </mxCell>
        <mxCell id="lgPMQ5y3BqEglXm5Jreu-20" value="EFS Account" style="points=[[0,0],[0.25,0],[0.5,0],[0.75,0],[1,0],[1,0.25],[1,0.5],[1,0.75],[1,1],[0.75,1],[0.5,1],[0.25,1],[0,1],[0,0.75],[0,0.5],[0,0.25]];outlineConnect=0;gradientColor=none;html=1;whiteSpace=wrap;fontSize=12;fontStyle=0;container=1;pointerEvents=0;collapsible=0;recursiveResize=0;shape=mxgraph.aws4.group;grIcon=mxgraph.aws4.group_aws_cloud_alt;strokeColor=#232F3E;fillColor=none;verticalAlign=top;align=left;spacingLeft=30;fontColor=#232F3E;dashed=0;" vertex="1" parent="1">
          <mxGeometry x="610" y="200" width="390" height="480" as="geometry" />
        </mxCell>
        <mxCell id="lgPMQ5y3BqEglXm5Jreu-21" value="&lt;b&gt;VPC B&lt;/b&gt;" style="sketch=0;outlineConnect=0;gradientColor=none;html=1;whiteSpace=wrap;fontSize=12;fontStyle=0;shape=mxgraph.aws4.group;grIcon=mxgraph.aws4.group_vpc;strokeColor=#879196;fillColor=none;verticalAlign=top;align=left;spacingLeft=30;fontColor=#879196;dashed=0;" vertex="1" parent="lgPMQ5y3BqEglXm5Jreu-20">
          <mxGeometry x="40" y="60" width="310" height="310" as="geometry" />
        </mxCell>
        <mxCell id="lgPMQ5y3BqEglXm5Jreu-23" value="Private subnet" style="points=[[0,0],[0.25,0],[0.5,0],[0.75,0],[1,0],[1,0.25],[1,0.5],[1,0.75],[1,1],[0.75,1],[0.5,1],[0.25,1],[0,1],[0,0.75],[0,0.5],[0,0.25]];outlineConnect=0;gradientColor=none;html=1;whiteSpace=wrap;fontSize=12;fontStyle=0;container=1;pointerEvents=0;collapsible=0;recursiveResize=0;shape=mxgraph.aws4.group;grIcon=mxgraph.aws4.group_security_group;grStroke=0;strokeColor=#00A4A6;fillColor=#E6F6F7;verticalAlign=top;align=left;spacingLeft=30;fontColor=#147EBA;dashed=0;" vertex="1" parent="lgPMQ5y3BqEglXm5Jreu-20">
          <mxGeometry x="60" y="229" width="120" height="120" as="geometry" />
        </mxCell>
        <mxCell id="lgPMQ5y3BqEglXm5Jreu-24" value="Mount Target AZ 1" style="outlineConnect=0;dashed=0;verticalLabelPosition=bottom;verticalAlign=top;align=center;html=1;shape=mxgraph.aws3.elastic_network_interface;fillColor=#F58534;gradientColor=none;" vertex="1" parent="lgPMQ5y3BqEglXm5Jreu-23">
          <mxGeometry x="40.5" y="40" width="49" height="50" as="geometry" />
        </mxCell>
        <mxCell id="lgPMQ5y3BqEglXm5Jreu-25" value="Private subnet" style="points=[[0,0],[0.25,0],[0.5,0],[0.75,0],[1,0],[1,0.25],[1,0.5],[1,0.75],[1,1],[0.75,1],[0.5,1],[0.25,1],[0,1],[0,0.75],[0,0.5],[0,0.25]];outlineConnect=0;gradientColor=none;html=1;whiteSpace=wrap;fontSize=12;fontStyle=0;container=1;pointerEvents=0;collapsible=0;recursiveResize=0;shape=mxgraph.aws4.group;grIcon=mxgraph.aws4.group_security_group;grStroke=0;strokeColor=#00A4A6;fillColor=#E6F6F7;verticalAlign=top;align=left;spacingLeft=30;fontColor=#147EBA;dashed=0;" vertex="1" parent="lgPMQ5y3BqEglXm5Jreu-20">
          <mxGeometry x="209.5" y="229" width="120" height="120" as="geometry" />
        </mxCell>
        <mxCell id="lgPMQ5y3BqEglXm5Jreu-26" value="Mount Target AZ 2" style="outlineConnect=0;dashed=0;verticalLabelPosition=bottom;verticalAlign=top;align=center;html=1;shape=mxgraph.aws3.elastic_network_interface;fillColor=#F58534;gradientColor=none;" vertex="1" parent="lgPMQ5y3BqEglXm5Jreu-25">
          <mxGeometry x="40.5" y="40" width="49" height="50" as="geometry" />
        </mxCell>
        <mxCell id="lgPMQ5y3BqEglXm5Jreu-27" value="Route Table" style="outlineConnect=0;dashed=0;verticalLabelPosition=bottom;verticalAlign=top;align=center;html=1;shape=mxgraph.aws3.route_table;fillColor=#F58536;gradientColor=none;" vertex="1" parent="lgPMQ5y3BqEglXm5Jreu-20">
          <mxGeometry x="160.5" y="399" width="52.5" height="49" as="geometry" />
        </mxCell>
        <mxCell id="lgPMQ5y3BqEglXm5Jreu-37" style="edgeStyle=orthogonalEdgeStyle;rounded=0;orthogonalLoop=1;jettySize=auto;html=1;" edge="1" parent="lgPMQ5y3BqEglXm5Jreu-20" source="lgPMQ5y3BqEglXm5Jreu-29" target="lgPMQ5y3BqEglXm5Jreu-23">
          <mxGeometry relative="1" as="geometry" />
        </mxCell>
        <mxCell id="lgPMQ5y3BqEglXm5Jreu-38" style="edgeStyle=orthogonalEdgeStyle;rounded=0;orthogonalLoop=1;jettySize=auto;html=1;" edge="1" parent="lgPMQ5y3BqEglXm5Jreu-20" source="lgPMQ5y3BqEglXm5Jreu-29" target="lgPMQ5y3BqEglXm5Jreu-25">
          <mxGeometry relative="1" as="geometry" />
        </mxCell>
        <mxCell id="lgPMQ5y3BqEglXm5Jreu-29" value="EFS" style="sketch=0;points=[[0,0,0],[0.25,0,0],[0.5,0,0],[0.75,0,0],[1,0,0],[0,1,0],[0.25,1,0],[0.5,1,0],[0.75,1,0],[1,1,0],[0,0.25,0],[0,0.5,0],[0,0.75,0],[1,0.25,0],[1,0.5,0],[1,0.75,0]];outlineConnect=0;fontColor=#232F3E;fillColor=#7AA116;strokeColor=#ffffff;dashed=0;verticalLabelPosition=top;verticalAlign=bottom;align=center;html=1;fontSize=12;fontStyle=0;aspect=fixed;shape=mxgraph.aws4.resourceIcon;resIcon=mxgraph.aws4.elastic_file_system;labelPosition=center;" vertex="1" parent="lgPMQ5y3BqEglXm5Jreu-20">
          <mxGeometry x="161" y="94" width="78" height="78" as="geometry" />
        </mxCell>
        <mxCell id="lgPMQ5y3BqEglXm5Jreu-32" value="Access Point" style="sketch=0;outlineConnect=0;fontColor=#232F3E;gradientColor=none;fillColor=#7AA116;strokeColor=none;dashed=0;verticalLabelPosition=bottom;verticalAlign=top;align=center;html=1;fontSize=12;fontStyle=0;aspect=fixed;pointerEvents=1;shape=mxgraph.aws4.file_system;" vertex="1" parent="lgPMQ5y3BqEglXm5Jreu-20">
          <mxGeometry x="103" y="117.75" width="39" height="36.5" as="geometry" />
        </mxCell>
        <mxCell id="lgPMQ5y3BqEglXm5Jreu-42" style="edgeStyle=orthogonalEdgeStyle;rounded=0;orthogonalLoop=1;jettySize=auto;html=1;" edge="1" parent="1" source="lgPMQ5y3BqEglXm5Jreu-48" target="lgPMQ5y3BqEglXm5Jreu-32">
          <mxGeometry relative="1" as="geometry">
            <mxPoint x="510" y="330" as="sourcePoint" />
          </mxGeometry>
        </mxCell>
        <mxCell id="lgPMQ5y3BqEglXm5Jreu-49" style="edgeStyle=orthogonalEdgeStyle;rounded=0;orthogonalLoop=1;jettySize=auto;html=1;" edge="1" parent="1" source="lgPMQ5y3BqEglXm5Jreu-14" target="lgPMQ5y3BqEglXm5Jreu-13">
          <mxGeometry relative="1" as="geometry" />
        </mxCell>
        <mxCell id="lgPMQ5y3BqEglXm5Jreu-52" value="VPC B CIDR" style="edgeLabel;html=1;align=center;verticalAlign=middle;resizable=0;points=[];" vertex="1" connectable="0" parent="lgPMQ5y3BqEglXm5Jreu-49">
          <mxGeometry x="-0.5807" y="1" relative="1" as="geometry">
            <mxPoint y="1" as="offset" />
          </mxGeometry>
        </mxCell>
        <mxCell id="lgPMQ5y3BqEglXm5Jreu-51" style="edgeStyle=orthogonalEdgeStyle;rounded=0;orthogonalLoop=1;jettySize=auto;html=1;entryX=0.5;entryY=1;entryDx=0;entryDy=0;entryPerimeter=0;" edge="1" parent="1" source="lgPMQ5y3BqEglXm5Jreu-27" target="lgPMQ5y3BqEglXm5Jreu-13">
          <mxGeometry relative="1" as="geometry" />
        </mxCell>
        <mxCell id="lgPMQ5y3BqEglXm5Jreu-53" value="&lt;div&gt;&lt;br&gt;&lt;/div&gt;" style="edgeLabel;html=1;align=center;verticalAlign=middle;resizable=0;points=[];" vertex="1" connectable="0" parent="lgPMQ5y3BqEglXm5Jreu-51">
          <mxGeometry x="-0.638" y="4" relative="1" as="geometry">
            <mxPoint as="offset" />
          </mxGeometry>
        </mxCell>
        <mxCell id="lgPMQ5y3BqEglXm5Jreu-54" value="VPC A CIDR" style="edgeLabel;html=1;align=center;verticalAlign=middle;resizable=0;points=[];" vertex="1" connectable="0" parent="lgPMQ5y3BqEglXm5Jreu-51">
          <mxGeometry x="-0.5866" y="1" relative="1" as="geometry">
            <mxPoint x="11" as="offset" />
          </mxGeometry>
        </mxCell>
      </root>
    </mxGraphModel>
  </diagram>
</mxfile>
